<svg width="25" height="30" viewBox="0 0 73 45" fill="none" xmlns="http://www.w3.org/2000/svg">
<g clip-path="url(#clip0_1_16)">
<path fill-rule="evenodd" clip-rule="evenodd" d="M26.6601 39.6777H46.0034V5.18957H26.6601V39.6777Z" fill="#FF5F00"/>
<path fill-rule="evenodd" clip-rule="evenodd" d="M27.8885 22.4336C27.8885 15.4368 31.1904 9.2052 36.332 5.18952C32.5714 2.25225 27.8271 0.5 22.6701 0.5C10.4618 0.5 0.565384 10.3202 0.565384 22.4336C0.565384 34.547 10.4618 44.3672 22.6701 44.3672C27.8271 44.3672 32.5714 42.6149 36.332 39.6777C31.1904 35.6614 27.8885 29.4304 27.8885 22.4336Z" fill="#EB001B"/>
<path fill-rule="evenodd" clip-rule="evenodd" d="M71.4083 36.025V35.1738H71.1842L70.9269 35.7593L70.669 35.1738H70.4448V36.025H70.6027V35.3828L70.8446 35.9366H71.0086L71.2505 35.3816V36.025H71.4083ZM69.9892 36.025V35.3188H70.2766V35.175H69.5458V35.3188H69.8326V36.025H69.9892ZM72.0985 22.4334C72.0985 34.5469 62.2015 44.367 49.9938 44.367C44.8368 44.367 40.0919 42.6148 36.3319 39.6775C41.4735 35.6618 44.7754 29.4303 44.7754 22.4334C44.7754 15.4372 41.4735 9.20565 36.3319 5.18937C40.0919 2.25209 44.8368 0.499843 49.9938 0.499843C62.2015 0.499843 72.0985 10.32 72.0985 22.4334Z" fill="#F79E1B"/>
</g>
<defs>
<clipPath id="clip0_1_16">
<rect width="72.2727" height="43.9305" fill="white" transform="translate(0.565247 0.5)"/>
</clipPath>
</defs>
</svg>

